<?xml version="1.0" encoding="utf-8"?>
<!-- Generator: Adobe Illustrator 26.0.1, SVG Export Plug-In . SVG Version: 6.00 Build 0)  -->
<svg version="1.1" id="Layer_2" xmlns="http://www.w3.org/2000/svg" xmlns:xlink="http://www.w3.org/1999/xlink" x="0px" y="0px"
	 viewBox="0 0 3653 540" style="enable-background:new 0 0 3653 540;" xml:space="preserve">
<style type="text/css">
	.st0{fill:none;stroke:#333333;stroke-width:2.3365;stroke-miterlimit:10;}
	.st1{fill:url(#SVGID_1_);}
	.st2{fill:url(#SVGID_00000034086857381289988120000010976918338872094630_);}
	.st3{fill:url(#SVGID_00000153704358991804539290000008218727110531901857_);}
	.st4{fill:url(#SVGID_00000142859615165841374340000002964974988339952276_);}
	.st5{fill:url(#SVGID_00000131326156450388227380000002468142073011654311_);}
	.st6{fill:url(#SVGID_00000059274684521493260940000007263933649666993855_);}
	.st7{fill:url(#SVGID_00000048501035034923960500000011759107662498045345_);}
	.st8{fill:url(#SVGID_00000055675753533956040320000007821481217969165729_);}
	.st9{fill:#FFFFFF;}
	.st10{fill:none;stroke:#000000;stroke-width:2.2833;stroke-miterlimit:10;}
	.st11{fill:#333333;}
	.st12{fill:url(#SVGID_00000183240330498853987570000012337892938335211928_);}
	.st13{fill:none;stroke:#333333;stroke-width:2.4494;stroke-miterlimit:10;}
	.st14{fill:none;stroke:#FFFFFF;stroke-width:4.9245;stroke-miterlimit:2.6131;stroke-dasharray:24.6226,14.7736;}
	.st15{fill:url(#SVGID_00000017515862278673970550000005084104358142144406_);}
	.st16{fill:url(#SVGID_00000149358828563246763410000004057903161038810557_);}
	.st17{fill:url(#SVGID_00000035498107860002195130000005015023370962934176_);}
	.st18{fill:url(#SVGID_00000106836861906889832170000016446973685313568445_);}
	.st19{fill:url(#SVGID_00000045582427674689577930000004657560223348742831_);}
	.st20{fill:url(#SVGID_00000045606771339445151430000010760854711012843907_);}
	.st21{fill:url(#SVGID_00000079485900765966572990000005123415942378331543_);}
	.st22{fill:url(#SVGID_00000168820874495755804400000017797024625420210567_);}
	.st23{fill:url(#SVGID_00000017481169478424319660000004928572940709772463_);}
	.st24{fill:url(#SVGID_00000146493421755823142110000006447175829380206722_);}
	.st25{fill:none;stroke:#FFFFFF;stroke-width:5.9706;stroke-miterlimit:2.6131;stroke-dasharray:29.8531,17.9119;}
	.st26{fill:#F7931E;}
	.st27{stroke:#FFFFFF;stroke-width:1.6125;stroke-miterlimit:10;}
	.st28{fill:url(#SVGID_00000160153646943040960770000011385028398076308881_);}
	.st29{fill:url(#SVGID_00000132769868069057788710000007561515912086793116_);}
</style>
<g>
	<g>
		<path class="st0" d="M-237.5,534.9"/>
	</g>
</g>
<g>
	<g>
		<linearGradient id="SVGID_1_" gradientUnits="userSpaceOnUse" x1="422.2527" y1="-1848.1031" x2="2887.5857" y2="-1521.1869">
			<stop  offset="0" style="stop-color:#6A2F00"/>
			<stop  offset="1" style="stop-color:#F7931E"/>
		</linearGradient>
		<path class="st1" d="M985.6-1674.2h-72.8v-91.2H772.1v91.2h-73.5v-236.4h73.5v83.8h140.6v-83.8h72.8V-1674.2z"/>
		
			<linearGradient id="SVGID_00000008866290765103610440000017568701422334408872_" gradientUnits="userSpaceOnUse" x1="426.1579" y1="-1877.5533" x2="2891.491" y2="-1550.6371">
			<stop  offset="0" style="stop-color:#6A2F00"/>
			<stop  offset="1" style="stop-color:#F7931E"/>
		</linearGradient>
		<path style="fill:url(#SVGID_00000008866290765103610440000017568701422334408872_);" d="M1104.7-1674.2h-73.2v-236.4h73.2
			V-1674.2z"/>
		
			<linearGradient id="SVGID_00000007400017742054044340000013456619940194156709_" gradientUnits="userSpaceOnUse" x1="429.3831" y1="-1901.8745" x2="2894.7161" y2="-1574.9583">
			<stop  offset="0" style="stop-color:#6A2F00"/>
			<stop  offset="1" style="stop-color:#F7931E"/>
		</linearGradient>
		<path style="fill:url(#SVGID_00000007400017742054044340000013456619940194156709_);" d="M1346-1734.7h-123.7v60.4h-72.8v-120.9
			h203.6c22.6,0,35.7-11,35.7-27.2c0-16.6-13.1-26.9-35.7-26.9h-203.6c-0.1-19.9-0.3-39.8-0.4-59.6c65.7-0.6,131.5-1.2,197.2-1.9
			c73.2,0,115.9,36,115.9,88.7C1462.3-1769.6,1419.5-1734.7,1346-1734.7z"/>
		
			<linearGradient id="SVGID_00000014595662356861267860000002765700443441398186_" gradientUnits="userSpaceOnUse" x1="435.6148" y1="-1948.8694" x2="2900.948" y2="-1621.9531">
			<stop  offset="0" style="stop-color:#6A2F00"/>
			<stop  offset="1" style="stop-color:#F7931E"/>
		</linearGradient>
		<path style="fill:url(#SVGID_00000014595662356861267860000002765700443441398186_);" d="M1809.8-1743.1
			c0,39.2-21.6,68.9-96.1,68.9h-207.8v-143.8h209.2c10.6,0,20.5-3.9,20.5-15.9c0-11.7-10.2-15.2-20.5-15.2h-209.2
			c0-19.9,0-39.8,0-59.6c68.7-0.6,137.3-1.2,206-1.9c56.5,0,92.9,21.9,92.9,65.4c0,27.9-15.9,43.5-32.2,49.5
			C1793.2-1789.8,1809.8-1771.4,1809.8-1743.1z M1579.4-1767.5v32.5H1714c15.9,0,22.6-5.7,22.6-16.6c0-10.2-6.7-15.9-22.6-15.9
			H1579.4z"/>
		
			<linearGradient id="SVGID_00000163794670618327019620000012330224174962649789_" gradientUnits="userSpaceOnUse" x1="443.1383" y1="-2005.6056" x2="2908.4714" y2="-1678.6893">
			<stop  offset="0" style="stop-color:#6A2F00"/>
			<stop  offset="1" style="stop-color:#F7931E"/>
		</linearGradient>
		<path style="fill:url(#SVGID_00000163794670618327019620000012330224174962649789_);" d="M2153.6-1777.4
			c0,71.4-49.1,107.1-147.4,107.1c-113.8,0-162.9-35.7-162.9-107.1v-133.2h72.8v133.2c0,35,14.8,46.3,90.1,46.3
			c56.2,0,73.9-13.1,73.9-46.3v-133.2h73.5V-1777.4z"/>
		
			<linearGradient id="SVGID_00000020381192766069445270000016299796990970447276_" gradientUnits="userSpaceOnUse" x1="447.1169" y1="-2035.609" x2="2912.45" y2="-1708.6927">
			<stop  offset="0" style="stop-color:#6A2F00"/>
			<stop  offset="1" style="stop-color:#F7931E"/>
		</linearGradient>
		<path style="fill:url(#SVGID_00000020381192766069445270000016299796990970447276_);" d="M2353.3-1674.2H2195v-147.4h73.5v86.6
			h84.8c40.6,0,70-22.6,70-56.5c0-33.2-30.4-57.6-70-57.6H2195c-0.2-19.9-0.4-39.8-0.5-59.6c53-0.6,105.9-1.2,158.9-1.9
			c82.7,0,142.4,47.7,142.4,115.9C2495.7-1726.2,2435.3-1674.2,2353.3-1674.2z"/>
		
			<linearGradient id="SVGID_00000046328530620141739200000009998008171816723628_" gradientUnits="userSpaceOnUse" x1="452.955" y1="-2079.6345" x2="2918.2881" y2="-1752.7183">
			<stop  offset="0" style="stop-color:#6A2F00"/>
			<stop  offset="1" style="stop-color:#F7931E"/>
		</linearGradient>
		<path style="fill:url(#SVGID_00000046328530620141739200000009998008171816723628_);" d="M2691.1-1674.2h-158.3v-147.4h73.5v86.6
			h84.8c40.6,0,70-22.6,70-56.5c0-33.2-30.4-57.6-70-57.6h-158.3c0.1-19.9,0.2-39.8,0.3-59.6c52.7-0.6,105.3-1.2,158-1.9
			c82.7,0,142.4,47.7,142.4,115.9C2833.6-1726.2,2773.1-1674.2,2691.1-1674.2z"/>
		
			<linearGradient id="SVGID_00000082370017257508994580000009684215045962741409_" gradientUnits="userSpaceOnUse" x1="460.7729" y1="-2138.5911" x2="2926.106" y2="-1811.6748">
			<stop  offset="0" style="stop-color:#6A2F00"/>
			<stop  offset="1" style="stop-color:#F7931E"/>
		</linearGradient>
		<path style="fill:url(#SVGID_00000082370017257508994580000009684215045962741409_);" d="M3178.1-1910.6l-140.3,158.3v78.1h-73.5
			v-78.5l-144.2-158h94l56.5,65.7c7.4,8.5,27.2,30,32.2,37.1c4.6-6.7,12.7-17,29.7-37.5l53.7-65.4H3178.1z"/>
	</g>
	<g>
		<g>
			<path class="st9" d="M419.4-1809.6"/>
			<g>
				<path class="st10" d="M419.4-1809.6"/>
			</g>
		</g>
		<g>
			<rect x="383.7" y="-2096.5" class="st11" width="73.5" height="149.4"/>
			<path class="st11" d="M437-1903h-36.5c-9.3,0-16.8-7.5-16.8-16.8v-14.1c0-4.6,3.7-8.3,8.3-8.3h57c4.6,0,8.3,3.7,8.3,8.3v10.7
				C457.2-1912.1,448.2-1903,437-1903z"/>
		</g>
		
			<linearGradient id="SVGID_00000093148251462603233600000006951116997384448191_" gradientUnits="userSpaceOnUse" x1="182.8794" y1="-1851.592" x2="655.6187" y2="-1851.592">
			<stop  offset="0" style="stop-color:#6A2F00"/>
			<stop  offset="1" style="stop-color:#F7931E"/>
		</linearGradient>
		<path style="fill:url(#SVGID_00000093148251462603233600000006951116997384448191_);" d="M364.1-2032.8v71h-77.7
			c-13.9,0-25.2,11.3-25.2,25.2v32c0,10.4,8.4,18.8,18.8,18.8h300.2c41.7,0,75.5,33.8,75.5,75.5c0,21.8,0,43.5,0,65.3
			c0,41.3-33.5,74.7-74.7,74.7H444.2c-3.8-0.1-26.6-0.8-43.4-19.6c-13.2-14.8-14.5-31.7-14.7-36.7c0-29.4,0-58.8,0-88.2
			c24.5,0,49,0,73.5,0c0,20.5,0,41,0,61.5c0,6.2,5,11.2,11.2,11.2h84.7c13.3,0,24.1-10.8,24.1-24.1v-30.1
			c0-14.3-11.6-25.9-25.9-25.9H256.9c-40.9,0-74-33.1-74-74v-61.4c0-41.5,33.7-75.2,75.2-75.2H364.1z"/>
		<g>
			<g>
				<path class="st13" d="M364.6-2005.2"/>
			</g>
		</g>
		<path class="st13" d="M365.4-2009.6"/>
		<path class="st14" d="M359.2-1996.1c-32.2,0.6-64.5,1.2-96.7,1.8c-18.5,0.3-33.4,15.3-33.7,33.8c-0.4,24-0.9,48-1.3,72
			c-0.3,17.7,13.8,32.2,31.4,32.4c105.4,1.3,210.8,2.7,316.3,4c22.7,0.3,40.9,19,40.5,41.7c-0.3,20.6-0.7,41.2-1,61.9
			c-0.4,23-19.2,41.5-42.2,41.5H459.2c-20.2,0-36.7-16.1-37.2-36.3c-0.5-21.4-1-42.8-1.6-64.1"/>
		
			<linearGradient id="SVGID_00000102531978489287761130000007091697071688810374_" gradientUnits="userSpaceOnUse" x1="422.9206" y1="-1799.1063" x2="422.9206" y2="-1821.151">
			<stop  offset="0" style="stop-color:#FFFFFF;stop-opacity:0"/>
			<stop  offset="1" style="stop-color:#FFFFFF"/>
		</linearGradient>
		
			<rect x="386.2" y="-1821.2" style="fill:url(#SVGID_00000102531978489287761130000007091697071688810374_);" width="73.5" height="22"/>
	</g>
</g>
<g>
	
		<linearGradient id="SVGID_00000124134755485547668440000009353922531397809034_" gradientUnits="userSpaceOnUse" x1="368.3592" y1="312.3308" x2="3241.7625" y2="693.3593">
		<stop  offset="0" style="stop-color:#6A2F00"/>
		<stop  offset="1" style="stop-color:#F7931E"/>
	</linearGradient>
	<path style="fill:url(#SVGID_00000124134755485547668440000009353922531397809034_);" d="M1024.9,515h-84.8V408.7H776.1V515h-85.7
		V239.4h85.7v97.6h163.9v-97.6h84.8V515z"/>
	
		<linearGradient id="SVGID_00000058553180323106164950000001135611944548128694_" gradientUnits="userSpaceOnUse" x1="372.9108" y1="278.0058" x2="3246.3142" y2="659.0344">
		<stop  offset="0" style="stop-color:#6A2F00"/>
		<stop  offset="1" style="stop-color:#F7931E"/>
	</linearGradient>
	<path style="fill:url(#SVGID_00000058553180323106164950000001135611944548128694_);" d="M1163.7,515h-85.3V239.4h85.3V515z"/>
	
		<linearGradient id="SVGID_00000047053359654006695940000007158368438845030327_" gradientUnits="userSpaceOnUse" x1="376.6698" y1="249.6589" x2="3250.0732" y2="630.6874">
		<stop  offset="0" style="stop-color:#6A2F00"/>
		<stop  offset="1" style="stop-color:#F7931E"/>
	</linearGradient>
	<path style="fill:url(#SVGID_00000047053359654006695940000007158368438845030327_);" d="M1445,444.6h-144.2V515H1216V374.1h237.2
		c26.4,0,41.6-12.8,41.6-31.7c0-19.4-15.2-31.3-41.6-31.3H1216c-0.2-23.2-0.3-46.3-0.5-69.5c76.6-0.7,153.2-1.4,229.9-2.2
		c85.3,0,135.1,42,135.1,103.4C1580.5,403.8,1530.7,444.6,1445,444.6z"/>
	
		<linearGradient id="SVGID_00000052816248151902125070000010578267456092677259_" gradientUnits="userSpaceOnUse" x1="383.933" y1="194.8854" x2="3257.3364" y2="575.9139">
		<stop  offset="0" style="stop-color:#6A2F00"/>
		<stop  offset="1" style="stop-color:#F7931E"/>
	</linearGradient>
	<path style="fill:url(#SVGID_00000052816248151902125070000010578267456092677259_);" d="M1985.6,434.7c0,45.7-25.1,80.3-112,80.3
		h-242.2V347.4h243.8c12.4,0,23.9-4.5,23.9-18.5c0-13.6-11.9-17.7-23.9-17.7h-243.8c0-23.2,0-46.3,0-69.5
		c80-0.7,160.1-1.4,240.1-2.2c65.9,0,108.3,25.5,108.3,76.2c0,32.5-18.5,50.7-37.5,57.7C1966.2,380.3,1985.6,401.7,1985.6,434.7z
		 M1717,406.3v37.9H1874c18.5,0,26.4-6.6,26.4-19.4c0-11.9-7.8-18.5-26.4-18.5H1717z"/>
	
		<linearGradient id="SVGID_00000097463779646914805880000011005331025274038144_" gradientUnits="userSpaceOnUse" x1="392.7019" y1="124.2272" x2="3266.1052" y2="505.2557">
		<stop  offset="0" style="stop-color:#6A2F00"/>
		<stop  offset="1" style="stop-color:#F7931E"/>
	</linearGradient>
	<path style="fill:url(#SVGID_00000097463779646914805880000011005331025274038144_);" d="M2386.3,390.2
		c0,83.2-57.2,124.8-171.8,124.8c-132.6,0-189.9-41.6-189.9-124.8V234.9h84.8v155.3c0,40.8,17.3,54,105,54c65.5,0,86.1-15.2,86.1-54
		V234.9h85.7V390.2z"/>
	
		<linearGradient id="SVGID_00000013182449216691872730000013286418195192447417_" gradientUnits="userSpaceOnUse" x1="397.3391" y1="93.7883" x2="3270.7424" y2="474.8168">
		<stop  offset="0" style="stop-color:#6A2F00"/>
		<stop  offset="1" style="stop-color:#F7931E"/>
	</linearGradient>
	<path style="fill:url(#SVGID_00000013182449216691872730000013286418195192447417_);" d="M2619,515h-184.5V343.2h85.7v100.9h98.9
		c47.4,0,81.6-26.4,81.6-65.9c0-38.7-35.4-67.1-81.6-67.1h-184.5c-0.2-23.2-0.4-46.3-0.6-69.5c61.7-0.7,123.4-1.4,185.2-2.2
		c96.4,0,166,55.6,166,135.1C2785,454.4,2714.6,515,2619,515z"/>
	
		<linearGradient id="SVGID_00000008130267078545349420000003755448927551137449_" gradientUnits="userSpaceOnUse" x1="404.1434" y1="42.4755" x2="3277.5466" y2="423.5041">
		<stop  offset="0" style="stop-color:#6A2F00"/>
		<stop  offset="1" style="stop-color:#F7931E"/>
	</linearGradient>
	<path style="fill:url(#SVGID_00000008130267078545349420000003755448927551137449_);" d="M3012.8,515h-184.5V343.2h85.7v100.9h98.9
		c47.4,0,81.6-26.4,81.6-65.9c0-38.7-35.4-67.1-81.6-67.1h-184.5c0.1-23.2,0.2-46.3,0.3-69.5c61.4-0.7,122.8-1.4,184.2-2.2
		c96.4,0,166,55.6,166,135.1C3178.8,454.4,3108.4,515,3012.8,515z"/>
	
		<linearGradient id="SVGID_00000145768699266315032550000017767254255072387458_" gradientUnits="userSpaceOnUse" x1="413.2554" y1="-26.2397" x2="3286.6587" y2="354.7888">
		<stop  offset="0" style="stop-color:#6A2F00"/>
		<stop  offset="1" style="stop-color:#F7931E"/>
	</linearGradient>
	<path style="fill:url(#SVGID_00000145768699266315032550000017767254255072387458_);" d="M3580.4,239.4L3416.9,424v91h-85.7v-91.4
		l-168-184.1h109.6l65.9,76.6c8.6,9.9,31.7,35,37.5,43.2c5.4-7.8,14.8-19.8,34.6-43.7l62.6-76.2H3580.4z"/>
	
		<linearGradient id="SVGID_00000078743257932848244270000001279565771545637529_" gradientUnits="userSpaceOnUse" x1="1813.6069" y1="3.4512" x2="1840.5651" y2="632.476">
		<stop  offset="0" style="stop-color:#6A2F00"/>
		<stop  offset="1" style="stop-color:#F7931E"/>
	</linearGradient>
	<path style="fill:url(#SVGID_00000078743257932848244270000001279565771545637529_);" d="M257.9,203c122.8-1.4,245.7-2.8,368.5-4.1
		H3581V93.6H634.1c0-0.1,0-0.1,0-0.2H268c-127.9,0-180.9,51.7-180.9,131.1c0,72.5,49.8,121,158.2,121h229.4
		c30.9,0,44.7,8.8,44.7,30.2c0,7.8-1.8,14-5.4,18.7c-10.1,13-32.7,12.4-39.4,12.2c-32.9-1.1-158.8,0.7-332.6,3
		C118.8,444.7,95.4,479.8,72,515h392.6c128.6,0,180.9-51.7,180.9-138c0-76.9-55.5-115.3-158.2-115.3H257.9
		c-30.2,0-44.7-8.2-44.7-29.6C213.2,210.6,227.7,203,257.9,203z"/>
	<path class="st25" d="M3569.5,146.9H213.8c-38.8,4.3-68.6,36.5-69.8,74.7c-1.3,39.6,28.5,74.5,68.6,79.6c98.4,0,196.8,0,295.1,0
		c44.5,3.8,77.7,42.8,74.7,85.7c-2.8,40.6-37.3,73.8-79.6,74.7c-127.4,0.4-254.7,0.8-382.1,1.2"/>
	<g>
		
			<rect x="3204.7" y="25" transform="matrix(-1 -4.489132e-11 4.489132e-11 -1 6647.9634 182.2388)" class="st26" width="238.6" height="132.2"/>
		<path class="st26" d="M3449.8,41.1c0,38.7,0.1,77.4,0.1,116.1c26.8,0,53.7,0,80.5,0c0-18.3,0-36.5,0-54.8
			c-11.8-18.3-23.6-36.5-35.5-54.8C3479.9,45.4,3464.8,43.3,3449.8,41.1z M3459.4,50.8c10.7,1.1,21.5,2.1,32.2,3.2
			c10.7,16.1,21.5,32.2,32.2,48.4c-21.5-2.6-43-5.3-64.5-7.9V50.8z"/>
		<g>
			<g>
				<path class="st27" d="M3239.8,158.6c0,15.6,12.7,28.3,28.3,28.3c15.6,0,28.3-12.7,28.3-28.3s-12.7-28.3-28.3-28.3
					C3252.4,130.3,3239.8,143,3239.8,158.6z M3255.9,158.6c0-6.7,5.5-12.2,12.2-12.2c6.7,0,12.2,5.5,12.2,12.2
					c0,6.7-5.5,12.2-12.2,12.2C3261.4,170.8,3255.9,165.4,3255.9,158.6z"/>
				
					<radialGradient id="SVGID_00000165230702138284348860000000561713309113434302_" cx="3265.0798" cy="158.6445" r="14.7099" gradientTransform="matrix(-1 0 0 1 6533.1602 0)" gradientUnits="userSpaceOnUse">
					<stop  offset="0" style="stop-color:#666666"/>
					<stop  offset="1" style="stop-color:#E6E6E6"/>
				</radialGradient>
				<circle style="fill:url(#SVGID_00000165230702138284348860000000561713309113434302_);" cx="3268.1" cy="158.6" r="14.7"/>
			</g>
			<g>
				<path class="st27" d="M3455.8,158.6c0,15.6,12.7,28.3,28.3,28.3c15.6,0,28.3-12.7,28.3-28.3s-12.7-28.3-28.3-28.3
					C3468.5,130.3,3455.8,143,3455.8,158.6z M3472,158.6c0-6.7,5.5-12.2,12.2-12.2c6.7,0,12.2,5.5,12.2,12.2
					c0,6.7-5.5,12.2-12.2,12.2C3477.4,170.8,3472,165.4,3472,158.6z"/>
				
					<radialGradient id="SVGID_00000068665477982661044600000005873098079191860918_" cx="3049.0115" cy="158.6445" r="14.7099" gradientTransform="matrix(-1 0 0 1 6533.1602 0)" gradientUnits="userSpaceOnUse">
					<stop  offset="0" style="stop-color:#666666"/>
					<stop  offset="1" style="stop-color:#E6E6E6"/>
				</radialGradient>
				<circle style="fill:url(#SVGID_00000068665477982661044600000005873098079191860918_);" cx="3484.1" cy="158.6" r="14.7"/>
			</g>
		</g>
	</g>
</g>
</svg>
