<?xml version="1.0" encoding="utf-8"?>
<!-- Generator: Adobe Illustrator 26.0.1, SVG Export Plug-In . SVG Version: 6.00 Build 0)  -->
<svg version="1.1" id="Layer_1" xmlns="http://www.w3.org/2000/svg" xmlns:xlink="http://www.w3.org/1999/xlink" x="0px" y="0px"
	 viewBox="0 0 494 60" style="enable-background:new 0 0 494 60;" xml:space="preserve">
<style type="text/css">
	.st0{fill:#11345B;}
	.st1{fill:url(#SVGID_1_);}
	.st2{fill:url(#SVGID_00000117665301481100037820000005817245501178303127_);}
	.st3{fill:url(#SVGID_00000134951350587166980570000002004610268004363677_);}
	.st4{fill:url(#SVGID_00000118389012253920335830000001509456640431324844_);}
	.st5{fill:url(#SVGID_00000170960777209661741150000004762295422307861654_);}
	.st6{fill:url(#SVGID_00000011742589784423917950000011177625851418083758_);}
	.st7{fill:url(#SVGID_00000056427395503754107970000013001211178449660585_);}
	.st8{fill:url(#SVGID_00000181808902966369205600000011605768462827247260_);}
	.st9{fill:url(#SVGID_00000003084535550446153790000001988465886870429365_);}
	.st10{fill:url(#SVGID_00000085935149050278045160000010215908177750072216_);}
	.st11{fill:#233A4C;}
	.st12{fill:#231F20;}
	.st13{fill:#020202;}
	.st14{fill:#EACFA4;}
	.st15{fill:#FEECCC;}
	.st16{fill:url(#SVGID_00000081626129661927438620000012289762864451656126_);}
	.st17{opacity:0.5;fill:#F8A71D;}
	.st18{fill:#294259;}
	.st19{fill:#D8BF98;}
	.st20{fill:none;stroke:#FBB03B;stroke-width:2.0472;stroke-miterlimit:10;}
	.st21{fill:#FFFFFF;}
	.st22{fill:#FFD9BD;}
	.st23{fill:#FFA294;}
	.st24{fill:#9C5043;}
	.st25{opacity:0.79;fill:#FFCFE9;}
	.st26{fill:#8A4039;}
	.st27{fill:url(#SVGID_00000014618667696114435270000006488584391182429842_);}
	.st28{opacity:0.31;fill:#FFFFFF;}
	.st29{fill:#FFE50A;}
	.st30{fill:#FBD000;}
	.st31{fill:#841918;}
	.st32{fill:url(#SVGID_00000028308859122186521660000002151137721171442580_);}
</style>
<g>
	<g>
		<path class="st0" d="M50.7,25.6c10.6,0,16.3,3.9,16.3,11.8c0,8.9-5.4,14.2-18.6,14.2H8l8.6-11.1h32.8c3.2,0,4.6-0.9,4.6-3.2
			c0-2.2-1.4-3.1-4.6-3.1H25.8c-11.1,0-16.3-5-16.3-12.4c0-8.2,5.4-13.5,18.6-13.5h37.6l-8.6,11.3h-30c-3.1,0-4.6,0.8-4.6,3
			c0,2.2,1.5,3,4.6,3H50.7z"/>
		<path class="st0" d="M125.4,51.7h-13.3V35H86.3v16.7H72.9V8.3h13.5v15.3h25.8V8.3h13.3V51.7z"/>
		<path class="st0" d="M147.3,51.7h-13.4V8.3h13.4V51.7z"/>
		<path class="st0" d="M191.5,40.6h-22.7v11.1h-13.3V29.5h37.3c4.1,0,6.5-2,6.5-5c0-3-2.4-4.9-6.5-4.9h-37.3l8.9-11.3h27.2
			c13.4,0,21.2,6.6,21.2,16.3C212.8,34.2,205,40.6,191.5,40.6z"/>
	</g>
	<g>
		<linearGradient id="SVGID_1_" gradientUnits="userSpaceOnUse" x1="219.4515" y1="30" x2="281.0229" y2="30">
			<stop  offset="0" style="stop-color:#FE9F0F"/>
			<stop  offset="1" style="stop-color:#FDBF2C"/>
		</linearGradient>
		<path class="st1" d="M281,51.7h-17.9l-9.6-11.5h-20.6v11.5h-13.4V29.5h37.7c4.1,0,7.4-1.9,7.4-4.9c0-3.4-2.8-5-7.4-5h-37.7
			l8.7-11.3H256c9.8,0,22.3,3.1,22.3,15.5c0,6.7-4.2,12.3-11.3,13.7c1.5,1.1,3.1,2.7,6.1,5.7L281,51.7z"/>
		
			<linearGradient id="SVGID_00000085209322202117337620000016068421509641609641_" gradientUnits="userSpaceOnUse" x1="286.0073" y1="30" x2="299.4103" y2="30">
			<stop  offset="0" style="stop-color:#FE9F0F"/>
			<stop  offset="1" style="stop-color:#FDBF2C"/>
		</linearGradient>
		<path style="fill:url(#SVGID_00000085209322202117337620000016068421509641609641_);" d="M299.4,51.7H286V8.3h13.4V51.7z"/>
		
			<linearGradient id="SVGID_00000019637895834241110520000004354690398985288843_" gradientUnits="userSpaceOnUse" x1="307.76" y1="30" x2="362.857" y2="30">
			<stop  offset="0" style="stop-color:#FE9F0F"/>
			<stop  offset="1" style="stop-color:#FDBF2C"/>
		</linearGradient>
		<path style="fill:url(#SVGID_00000019637895834241110520000004354690398985288843_);" d="M336.8,51.7h-29v-27h13.5v15.9h15.5
			c7.4,0,12.8-4.1,12.8-10.4c0-6.1-5.6-10.6-12.8-10.6h-29l8.5-11.3h20.5c15.2,0,26.1,8.7,26.1,21.2
			C362.9,42.1,351.8,51.7,336.8,51.7z"/>
		
			<linearGradient id="SVGID_00000153693256853115605070000010602487079589836979_" gradientUnits="userSpaceOnUse" x1="369.6555" y1="30" x2="419.9622" y2="30">
			<stop  offset="0" style="stop-color:#FE9F0F"/>
			<stop  offset="1" style="stop-color:#FDBF2C"/>
		</linearGradient>
		<path style="fill:url(#SVGID_00000153693256853115605070000010602487079589836979_);" d="M420,40.5l-8.6,11.1h-41.7V8.3h50.2
			l-8.7,11.3h-28v5.2h34.3l-7.7,9.8h-26.6v5.9H420z"/>
		
			<linearGradient id="SVGID_00000038374773930314350660000002072710586511887259_" gradientUnits="userSpaceOnUse" x1="424.4285" y1="30" x2="486" y2="30">
			<stop  offset="0" style="stop-color:#FE9F0F"/>
			<stop  offset="1" style="stop-color:#FDBF2C"/>
		</linearGradient>
		<path style="fill:url(#SVGID_00000038374773930314350660000002072710586511887259_);" d="M486,51.7h-17.9l-9.6-11.5h-20.6v11.5
			h-13.4V29.5h37.7c4.1,0,7.4-1.9,7.4-4.9c0-3.4-2.8-5-7.4-5h-37.7l8.7-11.3H461c9.8,0,22.3,3.1,22.3,15.5c0,6.7-4.2,12.3-11.3,13.7
			c1.5,1.1,3.1,2.7,6.1,5.7L486,51.7z"/>
	</g>
</g>
<g>
	<g>
		<g>
			<path class="st0" d="M675.1,86.5c9.2,0,14.1,3.4,14.1,10.3c0,7.7-4.7,12.3-16.1,12.3h-35l7.5-9.7H674c2.8,0,4-0.8,4-2.8
				c0-1.9-1.2-2.7-4-2.7h-20.5c-9.7,0-14.1-4.3-14.1-10.8c0-7.1,4.7-11.7,16.1-11.7h32.7l-7.5,9.8h-26.1c-2.7,0-4,0.7-4,2.6
				c0,1.9,1.3,2.6,4,2.6H675.1z"/>
			<path class="st0" d="M740,109.1h-11.6V94.6H706v14.5h-11.7V71.5H706v13.3h22.4V71.5H740V109.1z"/>
			<path class="st0" d="M758.9,109.1h-11.6V71.5h11.6V109.1z"/>
			<path class="st0" d="M797.3,99.5h-19.7v9.6h-11.6V89.9h32.4c3.6,0,5.7-1.7,5.7-4.3c0-2.6-2.1-4.3-5.7-4.3h-32.4l7.7-9.8h23.6
				c11.6,0,18.4,5.7,18.4,14.1C815.8,93.9,809,99.5,797.3,99.5z"/>
		</g>
		<g>
			
				<linearGradient id="SVGID_00000020381558901624883730000004338813396293170829_" gradientUnits="userSpaceOnUse" x1="821.5878" y1="90.2728" x2="875.032" y2="90.2728">
				<stop  offset="0" style="stop-color:#FE9F0F"/>
				<stop  offset="1" style="stop-color:#FDBF2C"/>
			</linearGradient>
			<path style="fill:url(#SVGID_00000020381558901624883730000004338813396293170829_);" d="M875,109.1h-15.6l-8.4-9.9h-17.9v9.9
				h-11.6V89.9h32.7c3.6,0,6.4-1.6,6.4-4.2c0-2.9-2.4-4.4-6.4-4.4h-32.7l7.6-9.8h24.2c8.5,0,19.3,2.7,19.3,13.4
				c0,5.8-3.7,10.7-9.8,11.9c1.3,1,2.7,2.3,5.3,4.9L875,109.1z"/>
			
				<linearGradient id="SVGID_00000072986622956216275760000011380438732908405121_" gradientUnits="userSpaceOnUse" x1="879.3584" y1="90.2728" x2="890.9923" y2="90.2728">
				<stop  offset="0" style="stop-color:#FE9F0F"/>
				<stop  offset="1" style="stop-color:#FDBF2C"/>
			</linearGradient>
			<path style="fill:url(#SVGID_00000072986622956216275760000011380438732908405121_);" d="M891,109.1h-11.6V71.5H891V109.1z"/>
			
				<linearGradient id="SVGID_00000050646310211798075750000014508943473972012962_" gradientUnits="userSpaceOnUse" x1="898.2398" y1="90.2728" x2="946.0643" y2="90.2728">
				<stop  offset="0" style="stop-color:#FE9F0F"/>
				<stop  offset="1" style="stop-color:#FDBF2C"/>
			</linearGradient>
			<path style="fill:url(#SVGID_00000050646310211798075750000014508943473972012962_);" d="M923.4,109.1h-25.2V85.6h11.7v13.8h13.5
				c6.5,0,11.1-3.6,11.1-9c0-5.3-4.8-9.2-11.1-9.2h-25.2l7.4-9.8h17.8c13.2,0,22.6,7.6,22.6,18.4
				C946.1,100.8,936.5,109.1,923.4,109.1z"/>
			
				<linearGradient id="SVGID_00000008130058147313883610000010341519472150655878_" gradientUnits="userSpaceOnUse" x1="951.9653" y1="90.2728" x2="995.6317" y2="90.2728">
				<stop  offset="0" style="stop-color:#FE9F0F"/>
				<stop  offset="1" style="stop-color:#FDBF2C"/>
			</linearGradient>
			<path style="fill:url(#SVGID_00000008130058147313883610000010341519472150655878_);" d="M995.6,99.4l-7.5,9.7H952V71.5h43.6
				l-7.5,9.8h-24.3v4.5h29.8l-6.7,8.5h-23.1v5.1H995.6z"/>
			
				<linearGradient id="SVGID_00000147213447304357903220000015041391484598411698_" gradientUnits="userSpaceOnUse" x1="999.5085" y1="90.2728" x2="1052.9526" y2="90.2728">
				<stop  offset="0" style="stop-color:#FE9F0F"/>
				<stop  offset="1" style="stop-color:#FDBF2C"/>
			</linearGradient>
			<path style="fill:url(#SVGID_00000147213447304357903220000015041391484598411698_);" d="M1053,109.1h-15.6l-8.4-9.9h-17.9v9.9
				h-11.6V89.9h32.7c3.6,0,6.4-1.6,6.4-4.2c0-2.9-2.4-4.4-6.4-4.4h-32.7l7.6-9.8h24.2c8.5,0,19.3,2.7,19.3,13.4
				c0,5.8-3.7,10.7-9.8,11.9c1.3,1,2.7,2.3,5.3,4.9L1053,109.1z"/>
		</g>
	</g>
	<g>
		<path class="st0" d="M978.5,28.5L978.5,28.5c-2.5,0-4.5-2-4.5-4.5V6.7c0-2.5,2-4.5,4.5-4.5l0,0c2.5,0,4.5,2,4.5,4.5v17.3
			C983.1,26.4,981.1,28.5,978.5,28.5z"/>
		<polygon class="st11" points="981.2,20.4 1078.7,23.7 981.2,27 		"/>
		<polygon class="st11" points="984.5,13.2 1045.6,16.5 984.5,19.8 		"/>
		<polygon class="st11" points="984.5,1.9 1030,5.2 984.5,8.5 		"/>
		<polygon class="st11" points="727.7,28.5 836.2,32.2 727.7,35.8 		"/>
		<polygon class="st11" points="731.4,20.5 799.3,24.2 731.4,27.9 		"/>
		<polygon class="st11" points="731.4,7.9 782,11.6 731.4,15.2 		"/>
		<path class="st12" d="M651.7-84.5c6.5-1.5,13-3.1,19.5-4.6c3.2,0.3,9.1,1.3,14.6,5.5c1.9,1.4,3.4,2.9,4.6,4.3
			c-2,1.9-5.5,4.5-10.3,6.3c-3,1.1-5.6,1.5-7.7,1.7c-3.3,0-6.5,0-9.8,0c-2.9,0-5.7,0-8.6,0c-0.2,0-3-0.4-4.3-2.9
			c-0.9-1.8-0.4-3.6-0.3-4C650.2-80.2,650.9-82.4,651.7-84.5z"/>
		<path class="st13" d="M682.4-85.3c1.2-0.6,2.4-1.3,3.6-1.9c1.1-0.5,2.3-1.1,3-2.1c0.2-0.3-0.1-0.7-0.4-0.6
			c-1.2,0.1-2.3,0.9-3.3,1.5c-1.1,0.7-2.2,1.3-3.3,2C681.2-86,681.8-84.9,682.4-85.3L682.4-85.3z"/>
		<g>
			<path class="st14" d="M682.4-90.4l-5.3-1.2c-0.4-0.1-2,0-2,0c-1.2-0.3-2.3,1.2-2.3,3.4v19.5c0,2.2,1,4.1,2.3,4.4l5.3,1.2
				c0.4,0.1,2,0,2,0c1.2,0.3,2.3-1.2,2.3-3.4V-86C684.6-88.1,683.6-90.1,682.4-90.4z"/>
			<path class="st15" d="M680.4-90.4l-5.3-1.2c-1.2-0.3-2.3,1.2-2.3,3.4v19.5c0,2.2,1,4.1,2.3,4.4l5.3,1.2c1.2,0.3,2.3-1.2,2.3-3.4
				V-86C682.6-88.1,681.6-90.1,680.4-90.4z"/>
		</g>
		<path class="st0" d="M638-4.8l-12,0v-25.3c0-2.3-2-4.2-4.4-4c-2.1,0.2-3.6,2.1-3.6,4.2v25.2v3.2c0,1.7,0.8,3.1,2.1,4
			c0.8,0.5,1.7,0.8,2.7,0.8h0l3.2,0l12.1,0c2.3,0,4.2-2,4-4.4C642-3.3,640.1-4.8,638-4.8z"/>
		<polygon class="st0" points="773.1,-145.2 773.1,4.5 786.1,4.5 786.1,-145.2 		"/>
		<path class="st0" d="M749.9-16.7c2.8,5.8,4.4,12.3,4.4,19.1c0,1.8-0.1,3.5-0.3,5.2l19.1,0c1.7,0,3.1-1.4,3.1-3.1v-21.2L749.9-16.7
			z"/>
		<path class="st0" d="M774.3,8.5l-152.9,0c-2,0-3.6-1.6-3.6-3.6l0-67.1c0-3.1,1.6-5.9,4.2-7.5l10.3-6.3l22-59.7
			c2.7-8.7,10.8-14.7,20-14.7h97c3.4,0,6.1,2.7,6.1,6.1V5.4C777.4,7.1,776,8.5,774.3,8.5z"/>
		
			<linearGradient id="SVGID_00000093891208495663001690000015869252872273823378_" gradientUnits="userSpaceOnUse" x1="581.277" y1="16.3564" x2="581.277" y2="-142.5504" gradientTransform="matrix(1 0 0 1 116.3536 -7.8299)">
			<stop  offset="0" style="stop-color:#FE9F0F"/>
			<stop  offset="1" style="stop-color:#FDBF2C"/>
		</linearGradient>
		<path style="fill:url(#SVGID_00000093891208495663001690000015869252872273823378_);" d="M751.1-15.8l26.3,0v-128.5
			c0-3.4-2.7-6.1-6.1-6.1h-97c-9.2,0-17.3,6-20,14.7l-22,59.7L622-69.6c-2.6,1.6-4.2,4.4-4.2,7.5V5c0,2,1.6,3.6,3.6,3.6l47.2,0
			c-0.2-1.7-0.3-3.4-0.3-5.2c0-24.1,19.5-43.6,43.6-43.6C729.1-40.3,744-30.3,751.1-15.8z"/>
		<path class="st17" d="M769.5-15.8v-123.7c0-4.1-3.3-7.4-7.4-7.4l-87.7,0c-7.7,0-14.4,4.9-16.7,12.2l-23.2,63.5v64.8
			c0,6.3,5.2,11.5,11.5,11.5l22.4,0c0-0.6-0.1-1.1-0.1-1.7c0-0.7,0-1.5,0.1-2.2l-22.4,0c-4.2,0-7.6-3.4-7.6-7.6v-64.1l23-62.9
			c1.8-5.7,7-9.5,12.9-9.5H762c1.9,0,3.5,1.6,3.5,3.5v123.7L769.5-15.8z"/>
		<path class="st17" d="M755.2-143h-80.9c-6,0-11.2,3.8-12.9,9.5l-20.8,55.8c-0.6,2-0.3,4,0.9,5.7c1.2,1.6,3.1,2.6,5.1,2.6l15.9,0
			c7.4,0,14.6-2.6,20.3-7.4l2-1.7c5.3-4.5,12.1-6.9,19.1-6.9l51.3,0c3.8,0,6.9-3.1,6.9-6.9v-43.8C762.1-139.9,759-143,755.2-143z"/>
		<path class="st0" d="M762-145.9h-87.7c-7.3,0-13.6,4.7-15.8,11.5l-23.1,63.2l-0.1,0.2l0,64.6c0,5.8,4.7,10.5,10.5,10.5l122.6,0
			l0-143.6C768.5-143,765.6-145.9,762-145.9z M766.5,2.1l-120.6,0c-4.7,0-8.5-3.8-8.5-8.5v-64.3l23-63.1c1.9-6.1,7.5-10.2,13.9-10.2
			l87.7,0c2.5,0,4.5,2,4.5,4.5L766.5,2.1z"/>
		<path class="st0" d="M703.9-86.5l51.3,0c3.2,0,5.9-2.6,5.9-5.9v-43.8c0-3.2-2.6-5.9-5.9-5.9l-80.9,0c-5.5,0-10.4,3.5-12,8.8
			c-4.4,11.9-8.9,23.9-13.3,35.8c-2.5,6.7-5,13.3-7.4,20c-0.1,0.2-0.8,2.6,0.8,4.8c1,1.3,2.5,2.2,4.3,2.2h15.9
			c7.2,0,14.2-2.5,19.7-7.2l2-1.7C689.7-83.9,696.7-86.5,703.9-86.5z"/>
		<path class="st17" d="M759.8-75.9H744c-1.5,0-2.6,1.2-2.6,2.6c0,1.5,1.2,2.6,2.6,2.6h15.8c1.5,0,2.6-1.2,2.6-2.6
			C762.4-74.7,761.3-75.9,759.8-75.9z"/>
		<path class="st15" d="M758.5-77.2h-15.8c-1.5,0-2.6,1.2-2.6,2.6c0,1.5,1.2,2.6,2.6,2.6h15.8c1.5,0,2.6-1.2,2.6-2.6
			C761.1-76.1,759.9-77.2,758.5-77.2z"/>
		<path class="st15" d="M751.1-15.8c-7.1-14.5-22-24.5-39.2-24.5c-0.6,0-1.2,0-1.8,0c16.4,0.7,30.5,10.5,37.3,24.4
			c2.8,5.8,4.4,12.3,4.4,19.1c0,1.8-0.1,3.5-0.3,5.2l3.7,0c0.2-1.7,0.3-3.4,0.3-5.2C755.5-3.5,753.9-10,751.1-15.8z"/>
		<circle class="st11" cx="710.7" cy="2.5" r="38.6"/>
		<circle class="st18" cx="710.7" cy="2.5" r="35.8"/>
		<circle class="st11" cx="710.7" cy="2.5" r="24"/>
		<circle class="st15" cx="710.7" cy="2.5" r="20.7"/>
		<path class="st19" d="M723.5-13.8c2.8,3.5,4.5,8,4.5,12.8c0,11.4-9.3,20.7-20.7,20.7c-4.8,0-9.3-1.7-12.8-4.5
			c3.8,4.8,9.7,7.9,16.3,7.9c11.4,0,20.7-9.3,20.7-20.7C731.4-4.1,728.3-10,723.5-13.8z"/>
		<path class="st0" d="M795.6,7.6l268.3,0c8.4,0,15.1-6.8,15.1-15.1v-160.5c0-8.4-6.8-15.1-15.1-15.1l-268.3,0
			c-8.4,0-15.1,6.8-15.1,15.1V-7.5C780.5,0.9,787.2,7.6,795.6,7.6z"/>
		<path class="st20" d="M1054.5-4.6H802.4c-6.8,0-12.3-5.5-12.3-12.3v-142.2c0-6.8,5.5-12.3,12.3-12.3h252.1
			c6.8,0,12.3,5.5,12.3,12.3v142.2C1066.8-10.1,1061.3-4.6,1054.5-4.6z"/>
		<g>
			<path class="st15" d="M1029.5-12.2c-7.1-14.5-22-24.5-39.2-24.5c-0.6,0-1.2,0-1.8,0c16.4,0.7,30.5,10.5,37.3,24.4
				c2.8,5.8,4.4,12.3,4.4,19.1c0,1.8-0.1,3.5-0.3,5.2h3.7c0.2-1.7,0.3-3.4,0.3-5.2C1033.9,0,1032.3-6.5,1029.5-12.2z"/>
			<g>
				<circle class="st11" cx="990.3" cy="6.9" r="38.6"/>
				<circle class="st18" cx="990.3" cy="6.9" r="35.8"/>
				<circle class="st11" cx="990.3" cy="6.9" r="24"/>
				<circle class="st15" cx="990.3" cy="6.9" r="20.7"/>
				<path class="st19" d="M1003.1-9.4c2.8,3.5,4.5,8,4.5,12.8c0,11.4-9.3,20.7-20.7,20.7c-4.8,0-9.3-1.7-12.8-4.5
					c3.8,4.8,9.7,7.9,16.3,7.9c11.4,0,20.7-9.3,20.7-20.7C1011,0.3,1007.9-5.6,1003.1-9.4z"/>
			</g>
		</g>
		<path class="st21" d="M721.7-106.2c-0.1-0.1-0.3-0.2-0.5-0.2c-0.1,0-0.2,0.2-0.2,0.3c0,0,0,0.1,0,0.1c0,0.2,0,0.3,0.2,0.4
			c0.1,0,0.1,0.1,0.2,0.1c0.1,0,0.2,0,0.3-0.1c0.1-0.1,0.2-0.2,0.2-0.3C721.9-106,721.8-106.2,721.7-106.2z"/>
		<path class="st22" d="M719.4-105.3c-1.2-0.9-2.7-1.2-3.9-2.1c-1.3-1-2.5-2.3-3.9-3.2c-2.8-1.9-6-3.3-9.2-4.4
			c-1.6-0.6-3.2-1.2-4.8-1.6c-1.1-0.2-2.2-0.2-3,0.5c-0.3-0.1-0.7,0-0.7,0.4c0.1,1.8,0.2,3.6,0.4,5.5c0.1,1.8,0.5,3.7,0.4,5.5
			c-0.1,0.9-0.4,1.2-1.1,1.8c-0.3,0.3-0.5,0.5-0.6,0.9c-0.4,1.1,0,2.7,0.4,3.8c2,5.7,8.4,7.6,13.9,7c1.3-0.1,2.8-0.2,3.8-1.1
			c1.5-1.2,2.8-1.5,4.6-1.9c2.4-0.5,4.8-1.6,5.3-4.3C721.4-100.8,721.4-103.8,719.4-105.3z"/>
		<path class="st22" d="M689.7-87.2c0-0.2-0.1-0.4-0.1-0.6c0-0.1,0-0.2,0-0.3c0-1-0.1-2.5-0.8-3.3c-0.5-0.7-1.3-1-2.1-0.5
			c-0.1,0-0.1,0.1-0.2,0.2c0,0,0,0,0,0c-0.3,0.1-0.5,0.3-0.6,0.5c-0.2,0.3-0.4,0.6-0.5,1c-0.4,1.3-0.1,3.2,1,4.2
			c0.7,0.6,2.5,1.5,3.3,0.7C690.2-85.9,689.8-86.6,689.7-87.2z"/>
		<path class="st23" d="M717.4-99.7c-0.4-0.2-0.9-0.3-1.3-0.1c-0.8-0.1-1.8,0.3-2.2,1c-0.4,0.7-0.2,1.6,0.5,2
			c0.6,0.4,1.3,0.4,1.9,0.2c0.6-0.2,1.2-0.5,1.5-1.1C718.3-98.4,718.2-99.3,717.4-99.7z"/>
		<path class="st23" d="M709.6-103.3c-0.3-2.7-0.2-5.7-3.1-7c-0.6-0.3-1.4,0.4-1.3,1.1c0,0,0,0,0,0c-2.1-0.8-3.9-2.1-5.4-3.8
			c-0.6-0.7-1.5-0.3-1.8,0.4c-1.1-1.1-2-2.5-2.3-4c-0.2-0.8-1.3-0.6-1.2,0.2c0,0.1,0,0.2,0,0.3c-0.5,0.3-0.7,0.9-0.8,1.5
			c-0.2,1-0.3,1.9,0,2.9c0.1,0.2,0.4,0.3,0.5,0.1c0.3-0.5,0.5-1.1,0.7-1.7c0-0.1,0.1-0.4,0.2-0.7c0.6,1.6,1.7,3,3.1,4.1
			c0.5,0.4,1.2,0.1,1.5-0.4c1.8,1.6,3.9,2.8,6.3,3.4c0.4,0.1,0.9,0,1.2-0.4c0.7,1.3,0.9,3.1,1.7,4.2
			C709.2-102.6,709.7-102.9,709.6-103.3z"/>
		<path class="st23" d="M708.8-100c1-0.7,2-1.5,3-2.3c0.4-0.3,0-1.1-0.5-0.8c-1.7,1-3.6,2-5.1,3.3c-1.2,1.1-1.6,2.7-1.1,4.2
			c0.4,1.4,1.4,3,2.8,3.7c1.1,0.6,2.7,0.6,3.1-0.7c0.1-0.2-0.1-0.5-0.3-0.5c-1.2,0-2.1,0.3-3.1-0.7c-0.8-0.9-1.5-2.3-1.3-3.5
			C706.5-98.6,707.9-99.2,708.8-100z"/>
		<path class="st23" d="M689.8-86.4c-0.6-0.6-1.4-0.9-1.9-1.5c-0.7-0.9-1.1-1.9-1-3c0-0.1,0-0.2-0.1-0.2c0-0.1,0.1-0.2,0.1-0.4
			c0.1-0.3-0.3-0.6-0.5-0.3c-1.5,2.5-1.1,6.2,2.2,7c0.4,0.1,0.7,0,1-0.3c0.2-0.2,0.2-0.4,0.2-0.6C689.9-85.8,690-86.1,689.8-86.4z"
			/>
		<path class="st24" d="M732.3-105.1c-1.2-1.6-3-2.2-4.8-2.9c-2.2-0.9-4.4-1.9-6.5-3.1c-7.8-4.3-15-10.6-23.9-12.4
			c-0.2-0.2-0.4-0.2-0.7-0.1c-0.4,0-0.7,0.3-0.9,0.6c-3.1,2.3-5.1,5.3-6.6,8.8c-0.2,0.4,0.5,0.8,0.7,0.4c0.6-1,1.5-1.8,2.5-2.5
			c0,0.5,0.1,0.9,0.2,1.4c0.1,0.7,1,0.8,1.4,0.3c0.4-0.5,0.8-0.9,1.1-1.4c0.1-0.1,0.2-0.2,0.3-0.3c0.1-0.1,0.1-0.1,0.2-0.2
			c0.3,0.6,0.5,1.4,0.8,1.9c0.6,1.4,1.4,2.7,2.7,3.5c0.6,0.3,1.3,0.1,1.4-0.6c0-0.1,0-0.2,0-0.3c1.3,1.6,2.8,3,4.7,3.9
			c0.7,0.3,1.3-0.4,1.2-1c-0.1-0.6-0.1-1.2-0.2-1.8c1,0.7,2,1.6,2.3,2.6c0.4,1.7,0.6,3.4,0.7,5.1c0.1,0.7,0.9,0.9,1.4,0.5
			c2.3-1.8,6.3-4.4,8.8-1.7c2.1,2.2,2,6.8-0.1,9c-0.3,0.3-0.2,0.9,0.3,0.9c1.3,0,2.6,0.2,3.8-0.2c0.6-0.2,1.2-0.6,1.7-0.7
			c0.1,0,0.1,0,0.2,0c0.6,0.3,1.3,0.6,1.9,0.8c0.3,0.1,0.5,0,0.7-0.1c0,0,0,0,0,0c0.8,0.3,1.3-0.6,1-1.2c1.3-1.5,2.5-3.2,3.5-4.8
			C733.3-102,733.3-103.7,732.3-105.1z"/>
		<path class="st21" d="M710.7-104c-2.7,1-5.7,1.5-8.6,1.5c-2.6,0-5.5,0.1-8-1c-0.1-0.5-0.8-0.6-1.1,0c-1.3,3.3-0.3,7,2.3,9.4
			c2.9,2.7,6.7,2.1,10.3,2.8c0.1,0,0.2,0,0.3,0c0.3,0.3,0.6,0.5,1,0.6c0.3,0.1,0.6-0.1,0.5-0.4c-0.3-1.1-1.3-1.9-1.8-2.9
			c-0.8-1.4-1.4-3.2-0.6-4.6c1.4-2.3,3.9-3.2,6-4.6C711.5-103.6,711.1-104.1,710.7-104z"/>
		<path class="st25" d="M710.7-104c-2.7,1-5.7,1.5-8.6,1.5c-0.4,0-0.8,0-1.2,0c-0.4,0.3-0.8,0.6-1.2,0.8c-0.5,0.3-1.1,0.6-1.5,1.1
			c-0.1,0.2-0.2,0.5-0.3,0.7c0,0.1,0,0.1,0,0.2c0,0,0,0,0,0c0,0,0,0,0,0c0,0,0,0.1,0,0.1c0.1,0.1,0,0.1,0.2,0.2
			c0.1,0.1,0.2,0.1,0.2,0.2c0.2,0.1,0.4,0.2,0.5,0.3c1.1,0.7,1.8,1.8,1.9,3.1c0.1,1.2-0.6,2.3-1.1,3.4c-0.1,0.1-0.1,0.2-0.2,0.4
			c2,0.4,4.1,0.4,6.2,0.8c0.1,0,0.2,0,0.3,0c0.3,0.3,0.6,0.5,1,0.6c0.3,0.1,0.6-0.1,0.5-0.4c-0.3-1.1-1.3-1.9-1.8-2.9
			c-0.8-1.4-1.4-3.2-0.6-4.6c1.4-2.3,3.9-3.2,6-4.6C711.5-103.6,711.1-104.1,710.7-104z"/>
		<path class="st21" d="M716.6-103.7c-0.7-0.5-1.8-0.2-2.1,0.6c-0.2,0.4,0,0.7,0.4,0.9c0.1,0.1,0.2,0.2,0.4,0.2c0.4,0.1,1,0,1.3-0.3
			C717.1-102.7,717.1-103.3,716.6-103.7z"/>
		<path class="st21" d="M718.8-103.1c-0.1-0.1-0.3-0.2-0.5-0.1c-0.1,0-0.2,0.2-0.2,0.3c0,0,0,0.1,0,0.1c0,0.2,0,0.3,0.2,0.4
			c0.1,0,0.1,0.1,0.2,0.1c0.1,0,0.2,0,0.3-0.1c0.1-0.1,0.2-0.2,0.2-0.3C718.9-102.9,718.9-103,718.8-103.1z"/>
		<path class="st26" d="M731.8-105.5c-1.1-0.7-2.3-1.3-3.5-1.8c-0.4-0.2-0.7-0.1-1,0.1c-0.7-0.5-1.5-0.9-2.3-1.2
			c-0.2-0.1-0.4-0.1-0.6,0c-2-1.7-4.3-3.2-6.5-4.4c-6.7-3.9-14-6.8-20.9-10.3c-0.7-0.3-1.2,0.7-0.6,1.1c2.9,2.1,5.9,3.8,9.1,5.4
			c3.2,1.6,6.4,3.1,9.5,4.9c3,1.7,6,3.6,8.5,5.9c2,1.8,4,4.3,4.3,7.1c-0.1-0.1-0.1-0.2-0.2-0.3c-0.2-0.3-0.7-0.2-0.8,0.1
			c-0.3-0.5-1.2-0.3-1.3,0.4c0,0.3-0.1,0.5-0.1,0.8c0,0.1,0,0.2,0,0.3c-0.8,0.2-1.4,0.7-2.2,0.9c-1,0.3-2.1,0.4-3.2,0.4
			c-0.9,0.1-0.8,1.5,0.1,1.6c1.7,0.2,5,0.3,6-1.4c0.3,0.3,0.7,0.5,1.1,0.3c0.3-0.1,0.5-0.3,0.6-0.6c0.3,0.6,1.4,0.6,1.7-0.1
			c0.6-1.3,1.3-2.5,1.9-3.7c0.3-0.2,0.4-0.5,0.5-0.8c0.5-0.8,1-1.6,1.1-2.5C733.3-104.4,732.6-105,731.8-105.5z"/>
		<path class="st26" d="M704.7-110.8c-0.3-0.5-0.5-0.9-0.6-1.4c-0.1-0.5-0.6-0.8-1-0.7c-0.5,0.1-0.8,0.5-0.7,1
			c0.1,0.6,0.2,1.2,0.6,1.8c0.3,0.6,1,1.4,1.8,1.1c0.3-0.1,0.4-0.4,0.5-0.7C705.2-110.1,704.9-110.5,704.7-110.8z"/>
		<path class="st26" d="M706.4-111.1c-0.1-0.7-0.5-1.2-0.9-1.8c-0.2-0.3-0.7-0.3-1-0.1c-0.3,0.2-0.4,0.6-0.3,0.9
			c0.1,0.3,0.2,0.6,0.4,0.8c0.2,0.3,0.4,0.6,0.7,0.9c0.2,0.2,0.6,0.1,0.8,0C706.3-110.5,706.4-110.8,706.4-111.1z"/>
		<path class="st26" d="M709.4-109.5c-0.4-0.9-1.1-1.7-1.6-2.6c-0.5-0.9-1.8-0.3-1.4,0.6c0.4,1.1,1,2.2,1.9,2.9
			C709-108.2,709.7-108.8,709.4-109.5z"/>
		<path class="st26" d="M711.5-106.3c0-0.8-0.1-1.6-0.1-2.3c0-1.1-1.5-1.3-1.7-0.1c-0.1,0.8-0.2,1.6-0.2,2.5c0,0.8-0.1,1.5,0.5,2.1
			c0.3,0.4,0.8,0.3,1.1-0.1C711.6-104.9,711.5-105.6,711.5-106.3z"/>
		<path class="st26" d="M712.2-107.6c-0.2,0.4-0.3,0.9-0.5,1.3c-0.2,0.5-0.4,0.9-0.1,1.4c0.2,0.3,0.5,0.5,0.9,0.3
			c0.5-0.2,0.6-0.7,0.8-1.2c0.1-0.5,0.3-0.9,0.4-1.4C713.9-108,712.5-108.6,712.2-107.6z"/>
		
			<linearGradient id="SVGID_00000146457367662394558640000005795360128239033254_" gradientUnits="userSpaceOnUse" x1="687.3306" y1="-120.5358" x2="737.4061" y2="-120.5358">
			<stop  offset="0" style="stop-color:#FE9F0F"/>
			<stop  offset="1" style="stop-color:#FDBF2C"/>
		</linearGradient>
		<path style="fill:url(#SVGID_00000146457367662394558640000005795360128239033254_);" d="M736.8-118.2c-1.4-4.7-4.6-8.7-8.3-11.9
			c-3.8-3.3-8.3-5.9-13.4-6.1c-2.4-0.1-4.8,0.3-6.9,1.3c-2.4,1.1-4.2,3-5.9,4.9c-1,1.1-2,2.2-2.7,3.4c-0.1,0.1-0.3,0.6-0.3,0.6
			c-0.1,0-0.7-0.2-0.9-0.3c-0.7-0.3-1.3-0.6-2-0.9c-2-1-3.9-2-6-2.5c-0.1-0.1-0.3-0.1-0.4-0.2c-0.2-0.1-0.3-0.1-0.5,0
			c-0.4-0.1-0.8-0.1-1.3-0.1c-1,0-1,1.3-0.1,1.5c1.2,0.2,2.3,0.7,3.4,1.2c2.1,1.2,4.2,2.3,6.3,3.5c0.1,0.3,0.3,0.6,0.6,0.8
			c2.9,1.2,5.9,2.4,8.6,4c2.7,1.6,5.3,3.4,8,5c2.8,1.6,5.6,3.1,8.4,4.5c2.8,1.5,5.7,3,8.6,4.3c0.2,0.1,0.4,0.1,0.6,0.1
			c0.3,0.2,0.8,0.3,1.1-0.1C737.3-108.4,738.1-113.6,736.8-118.2z"/>
		<path class="st28" d="M736.8-118.2c-1-3.6-3.1-6.7-5.7-9.4c-1.2,0.8-2.6,1.6-3.9,2.2c-4.9,2.2-10.3,3.2-15.6,3
			c-4.3-0.2-8.7-1.3-12.1-4c-0.1,0.2-0.3,0.5-0.3,0.6c-0.1,0-0.7-0.2-0.9-0.3c-0.7-0.3-1.3-0.6-2-0.9c-2-1-3.9-2-6-2.5
			c-0.1-0.1-0.3-0.1-0.4-0.2c-0.2-0.1-0.3-0.1-0.5,0c-0.4-0.1-0.8-0.1-1.3-0.1c-1,0-1,1.3-0.1,1.5c1.2,0.2,2.3,0.7,3.4,1.2
			c2.1,1.2,4.2,2.3,6.3,3.5c0.1,0.3,0.3,0.6,0.6,0.8c2.9,1.2,5.9,2.4,8.6,4c2.7,1.6,5.3,3.4,8,5c2.8,1.6,5.6,3.1,8.4,4.5
			c2.8,1.5,5.7,3,8.6,4.3c0.2,0.1,0.4,0.1,0.6,0.1c0.3,0.2,0.8,0.3,1.1-0.1C737.3-108.4,738.1-113.6,736.8-118.2z"/>
		<path class="st29" d="M723.5-86.3c-0.7-1.3-1.5-2.6-2.3-3.9c-0.7-1.2-1.4-2.7-2.3-3.8c-0.7-0.8-1.5-0.8-2.4-0.7
			c-1.5,0.2-2.9,0.6-4.4,1c-0.4,0.1-0.6,0.4-0.7,0.8c-0.3,1.8-2.3,3.1-3.6,4.3c-0.7,0.6-1.4,1.4-2.2,1.9c-0.8,0.5-2.1-0.2-3-0.4
			c-1.9-0.6-3.8-1.2-5.7-1.8c-1.7-0.6-3.5-1.2-4.8-2.5c0,0-0.1-0.1-0.1-0.1c-0.5-0.5-1.2-0.8-1.9-1.1c-0.3-0.1-0.6,0-0.8,0.2
			c-0.1,0.1-0.2,0.2-0.2,0.4c0,0,0,0,0,0c0,0.1,0,0.2,0,0.2c0.3,2.3,0.5,4.4,0.3,6.7c0,0.4,0.2,0.8,0.6,1c0.8,0.3,1.5,0.9,2.4,1.1
			c0.2,0.1,0.4,0.2,0.7,0.3c5.3,0.5,10.5-0.2,15.7-0.9c2.6-0.4,5.3-0.9,8-0.8c2.1,0.1,4.2,0.6,6.2-0.4
			C723.5-85.1,723.8-85.7,723.5-86.3z"/>
		<path class="st30" d="M723.5-86.3c-0.7-1.2-1.3-2.3-2-3.4c-0.7,0.7-1.5,1.3-2.4,1.8c-2.1,1.3-4.8,1.9-7.3,1.8
			c-0.8,0-1.6-0.1-2.3,0c-0.5,0.1-0.9,0.2-1.2,0.6c-0.5,0.4-1,0.6-1.6,0.8c-0.8,0.3-1.5,0.5-2.3,0.6c-3,0.4-6.1-0.4-8.9-1.4
			c-2.2-0.8-4.3-1.9-6.1-3.4c0.1,1.2,0.1,2.5-0.1,3.8c0,0.4,0.2,0.8,0.6,1c0.8,0.3,1.5,0.9,2.4,1.1c0.2,0.1,0.4,0.2,0.7,0.3
			c5.3,0.5,10.5-0.2,15.7-0.9c2.6-0.4,5.3-0.9,8-0.8c2.1,0.1,4.2,0.6,6.2-0.4C723.5-85.1,723.8-85.7,723.5-86.3z"/>
		<path class="st12" d="M690-84.9c-0.9-0.3-2-0.1-3-0.5c-0.9-0.3-1.4-1.3-1.6-2.1c-0.2-0.8-0.1-1.9,0.1-2.8c0.7-0.3,1.3-0.8,1.7-1.5
			c0.2,0,0.5,0,0.7,0c0.5,0,1-0.3,1-0.8c0.1-1.7,0-3.4-1.1-4.8c-0.9-1-2.4-1.6-3.7-1.3c-2.7,0.6-2.7,3.7-2.3,6.3
			c0,1.2,0.1,2.5,0.3,3.6c-0.3-0.2-0.7-0.3-1.2,0c-2.2,1.7-4.8,2.9-7.1,4.5c-0.8,0.5-0.5,1.8,0.4,2.1c1.3,0.4,2.5,0.3,3.8,0.1
			c1.4-0.2,2.8,0.1,4.2-0.2c0.5-0.1,0.7-0.4,0.9-0.7c0.4,0.4,1,0.4,1.6,0.5c1.8,0.1,4.1,0.7,5.6-0.7C690.7-83.8,690.7-84.7,690-84.9
			z M681.6-86.8c0.2-0.2,0.3-0.3,0.5-0.5c0,0,0.1-0.1,0.1-0.1c0,0.3,0.1,0.5,0.1,0.7c0,0.4,0,0.9,0.1,1.4
			C682.2-86,682-86.5,681.6-86.8z M684.6-84.7c0-0.1,0-0.1,0-0.2c0.1,0.1,0.1,0.2,0.2,0.2C684.7-84.7,684.7-84.7,684.6-84.7z"/>
		<path class="st12" d="M743-100.6c-0.1-1.6-1.5-2.7-3-2.9c-3.8-0.7-6,3-7.8,5.7c-1.3,2-2.6,4-3.9,5.9c-0.6,0.9-1.3,1.9-1.9,2.9
			c-0.6,0.9-1.1,2.4-2.1,2.9c-0.2,0.1-0.3,0.2-0.4,0.4c-0.3,0.5-0.1,1.2,0.5,1.5c1.6,0.8,3.9,0.4,5.6,0c1.9-0.4,3.7-1.1,5.5-1.8
			c1.6-0.7,3.1-1.6,4-3.2c1-1.7,1.6-3.8,2.1-5.7C742.2-96.6,743.1-98.8,743-100.6z"/>
		<path class="st13" d="M742.8-103.5c-1.4-1.2-3.5-1.5-5.3-1.1c-1.8,0.4-3.4,1.4-4.7,2.8c-1.4,1.4-2.4,3.1-3.5,4.8
			c-1.1,1.8-2.3,3.6-3.3,5.5c-1.3,2.1-2.5,4.3-3.7,6.4c-0.3,0.6-0.3,1.4,0.3,1.8c0.5,0.4,1.5,0.3,1.8-0.3c2-3.6,4-7.1,6.2-10.5
			c1-1.6,2-3.2,3.1-4.7c0.2-0.3,0.5-0.7,0.7-0.9c0.2-0.2,0.6-0.6,0.9-0.9c0.6-0.5,1.1-0.9,1.9-1.2c0.1,0,0.2-0.1,0.2-0.1
			c-0.2,0.1,0.2,0,0.2,0c0.2-0.1,0.4-0.1,0.6-0.1c0.1,0,0.2,0,0.3,0c0.1,0,0.4,0,0.2,0c0.2,0,0.4,0,0.6,0c0.1,0,0.2,0,0.3,0
			c0.1,0,0.3,0,0.1,0c0.2,0,0.4,0.1,0.7,0.2c0.1,0,0.2,0.1,0.2,0.1c0.1,0,0.1,0,0,0c0.1,0,0.1,0.1,0.2,0.1c0.2,0.1,0.4,0.3,0.6,0.4
			c0.5,0.5,1.5,0.2,1.8-0.3C743.6-102.3,743.4-103.1,742.8-103.5L742.8-103.5z"/>
		<path class="st31" d="M699.5-125.7c2.4-3.3,5-6.7,9-8.2c3.6-1.4,8.1-1.2,11.7,0.1c6.7,2.3,13.1,8,15.1,14.9
			c1.5,5.2,0,9.9-2.2,14.6c-0.2,0.4,0.3,0.9,0.6,0.5c13-15.1-7.3-36.8-24.1-32.1c-5,1.4-8.3,5.5-11,9.6
			C698.2-125.7,699.1-125.2,699.5-125.7L699.5-125.7z"/>
		<path class="st31" d="M685.9-128.5c1.8,0.9,3.6,1.9,5.3,2.8c1.6,0.8,3.3,2,5.1,2.2c0.7,0.1,1.1-0.9,0.6-1.3
			c-1.3-1.3-3.1-2.1-4.7-2.9c-1.7-0.9-3.4-1.8-5.1-2.7C685.8-131,684.6-129.2,685.9-128.5L685.9-128.5z"/>
		<path class="st31" d="M697-123c12.2,5.8,23.7,12.9,35.7,19.2c0.8,0.4,1.5-0.7,0.7-1.2c-11.1-7.7-23.5-13.8-35.8-19.3
			C696.8-124.6,696.2-123.3,697-123L697-123z"/>
		<path class="st31" d="M732-104.4c1,2.4-0.3,4.6-2.3,5.9c-0.4,0.3-0.3,1.1,0.3,0.9c3.1-0.7,4.2-4.7,3-7.4
			C732.7-105.6,731.7-105,732-104.4L732-104.4z"/>
		<path class="st31" d="M693.4-115.2c-0.3,1.8-0.2,3.5-0.1,5.3c0.2,1.9,0.2,4,0.8,5.9c0.1,0.3,0.6,0.4,0.7,0
			c0.8-3.5-0.9-7.2-0.3-10.8C694.7-115.6,693.5-116,693.4-115.2L693.4-115.2z"/>
		<path class="st31" d="M695.4-108.2c0,1-0.1,2.2,0.1,3.2c0.1,0.3,0.3,0.6,0.6,0.7c0.2,0,0.3,0.1,0.5,0c0.4-0.1,0.7-0.4,0.7-0.8
			c0.1-0.9-0.1-2-0.1-2.9C697.1-109.3,695.3-109.4,695.4-108.2L695.4-108.2z"/>
		<path class="st31" d="M696.3-111c0.6-0.7,1.6-1.5,2.5-1c0.7,0.4,1,1.3,1.3,1.9c0.2,0.5,0.9,0.2,0.8-0.3c-0.2-1.2-0.7-2.6-2-3
			c-1.4-0.4-2.6,0.6-3.4,1.6C695.2-111.2,695.9-110.6,696.3-111L696.3-111z"/>
		<path class="st31" d="M725.7-97.1c0,0.8,0.3,1.5,0.9,2c0.5,0.5,1.4,0.9,2.1,0.7c0.3-0.1,0.5-0.4,0.4-0.7c-0.1-0.3-0.6-0.3-0.9-0.4
			c-0.7-0.2-1.4-0.8-1.4-1.6C726.7-97.7,725.6-97.8,725.7-97.1L725.7-97.1z"/>
		<path class="st31" d="M728.8-97.3c-0.4,0.7-0.6,1.9,0.1,2.5c0.3,0.3,0.8,0.1,0.7-0.4c-0.1-0.3-0.2-0.5-0.2-0.8
			c0-0.3,0.1-0.6,0.2-0.8C729.9-97.3,729.1-97.8,728.8-97.3L728.8-97.3z"/>
		<path class="st31" d="M705-111.7c0.7,1.4,1.7,2.6,3.1,3.2c0.3,0.1,0.7-0.2,0.4-0.5c-1-0.9-2-1.9-2.6-3.2
			C705.6-112.7,704.7-112.3,705-111.7L705-111.7z"/>
		<path class="st31" d="M724.9-94.9c0.5,0.1,1.1,0.1,1.6,0c0.4-0.1,0.2-0.7-0.1-0.6c-0.4,0.1-0.9,0.2-1.3,0
			C724.7-95.6,724.5-95,724.9-94.9L724.9-94.9z"/>
		<path class="st31" d="M692.7-104.5c-2.2,3.6-0.6,8.5,2.4,11.2c3.6,3.2,9.1,3,13.6,2.7c0.2,0,0.3-0.4,0.1-0.4
			c-3.8-0.7-8.1-0.5-11.6-2.4c-3.4-1.9-5.6-7-3.5-10.4C694.2-104.5,693.1-105.2,692.7-104.5L692.7-104.5z"/>
		<path class="st31" d="M693.2-103.5c5.5,2,11.6,2.4,17.1,0.1c0.3-0.1,0.1-0.6-0.2-0.5c-3.3,0.5-6.5,1.2-9.8,1
			c-2.4-0.1-4.7-0.7-6.9-1.5C692.9-104.6,692.7-103.7,693.2-103.5L693.2-103.5z"/>
		<path class="st31" d="M712.2-103.1c1.6-1.1,3.9-2.5,5.8-1.3c1.5,0.9,2,3,1.9,4.7c-0.1,1.9-1,3.8-2.9,4.4c-1.2,0.4-2.5,0.3-3.6,0.7
			c-0.3,0.1-0.3,0.7,0.1,0.7c1.9,0.4,4.4,0.2,5.9-1.1c1.6-1.4,2.3-3.8,2.1-5.9c-0.2-2-1.3-4.2-3.4-4.8c-2.3-0.7-4.5,0.7-6.3,1.9
			C711.3-103.6,711.8-102.8,712.2-103.1L712.2-103.1z"/>
		<path class="st31" d="M715.1-98.6c0.7-0.5,1.5-0.9,2.2-1.4c0.3-0.2,0-0.6-0.3-0.6c-0.9,0.1-1.8,0.7-2.5,1.3
			C714-98.9,714.7-98.3,715.1-98.6L715.1-98.6z"/>
		<path class="st31" d="M715.4-99.7c0.7,0.7,1,1.5,1.3,2.4c0.1,0.3,0.6,0.2,0.6-0.1c0.1-1.1-0.7-2-1.5-2.7
			C715.5-100.3,715.1-100,715.4-99.7L715.4-99.7z"/>
		<path class="st31" d="M708.6-102.8c1-0.2,2.1-0.5,3.1-0.7c0.9-0.2,1.9-0.4,2.7-0.9c0.2-0.1,0.2-0.5-0.1-0.5c-1,0-1.9,0.3-2.8,0.6
			c-1,0.3-2.1,0.6-3.1,0.9C708-103.3,708.1-102.7,708.6-102.8L708.6-102.8z"/>
		<path class="st31" d="M711.1-93c1.6-0.4,3.2-0.8,4.7-1.4c0.3-0.1,0.1-0.6-0.2-0.5c-1.6,0.2-3.1,0.8-4.7,1.2
			C710.4-93.6,710.6-92.8,711.1-93L711.1-93z"/>
		<path class="st31" d="M708.3-110c0.2,2.4,0,5.3,0.8,7.6c0.1,0.3,0.5,0.3,0.5,0c0.3-2.4-0.3-5.2-0.5-7.7
			C709-110.5,708.3-110.4,708.3-110L708.3-110z"/>
		<path class="st31" d="M711-107.7c-0.3,1-0.6,2-0.8,3.1c-0.1,0.4,0.5,0.6,0.7,0.2c0.3-1,0.6-2,0.8-3
			C711.8-108,711.1-108.2,711-107.7L711-107.7z"/>
		<path class="st31" d="M719.3-94.4c2.1,0.7,4.5,0.6,6.3-0.8c0.3-0.2,0-0.5-0.3-0.4c-1.9,0.8-3.8,1.1-5.8,0.3
			C719-95.5,718.8-94.6,719.3-94.4L719.3-94.4z"/>
		<path class="st31" d="M693.2-89.7c4,1.3,7.9,3.5,12.1,3.9c0.7,0.1,0.8-0.9,0.2-1.2c-2-0.8-4.1-1.3-6.2-2c-1.9-0.7-3.8-1.3-5.8-1.9
			C692.8-91.1,692.4-90,693.2-89.7L693.2-89.7z"/>
		<path class="st31" d="M705.6-86.5c2.3-1.3,4.4-3.3,6-5.3c0.3-0.4-0.2-0.8-0.6-0.6c-1.1,0.5-1.9,1.4-2.7,2.2c-1,1-2,2-3.2,2.7
			C704.5-87.1,705-86.1,705.6-86.5L705.6-86.5z"/>
		<path class="st31" d="M718.1-94.3c1,1.5,1.9,3.1,2.7,4.7c0.7,1.5,1,3.2,2,4.5c0.2,0.3,0.7,0.1,0.7-0.3c0.1-1.6-0.9-3.4-1.6-4.8
			c-0.9-1.7-1.9-3.2-3-4.7C718.6-95.3,717.8-94.7,718.1-94.3L718.1-94.3z"/>
		<path class="st31" d="M688.5-91.3c0.5,2.1,0.2,4.2,0.7,6.3c0.1,0.4,0.8,0.5,0.9,0c0.4-2.1,0-4.5-0.5-6.5
			C689.4-92.2,688.4-92,688.5-91.3L688.5-91.3z"/>
		<path class="st31" d="M689.4-91.4c-0.9-0.8-2.1-1.6-3.3-1c-1.3,0.7-1.4,3.1-1.4,4.3c0.1,1.4,0.7,2.3,1.9,3c0.8,0.5,2.3,1,3.1,0.2
			c0.1-0.1,0.1-0.3-0.1-0.4c-1.1-0.5-2.7-0.5-3.4-1.7c-0.5-0.8-0.3-2.1-0.1-3c0.1-0.7,0.2-1.6,1.4-1.4c0.4,0.1,0.9,0.5,1.2,0.8
			C689.2-90.2,689.8-91,689.4-91.4L689.4-91.4z"/>
		<path class="st13" d="M689.5-92c-0.3-2-0.1-4.3-1.2-6.1c-1-1.6-3-2.1-4.7-1.5c-2.5,0.8-2.9,4-2.7,6.2c0.4,3.2,0.1,6.9,1.5,9.9
			c0.1,0.3,0.6,0.2,0.6-0.1c0.3-2.4-0.5-4.8-0.6-7.2c-0.1-2.2-1-5.4,0.7-7.1c1.8-1.8,4.1-0.2,4.7,1.7c0.4,1.4,0.5,2.9,0.8,4.4
			C688.7-91.2,689.5-91.5,689.5-92L689.5-92z"/>
		<path class="st31" d="M689.1-84.3c0.8,0.5,1.6,1.4,2.6,1.4c0.3,0,0.5-0.3,0.4-0.6c-0.4-0.9-1.5-1.4-2.3-1.9
			C689.1-85.9,688.4-84.7,689.1-84.3L689.1-84.3z"/>
		<path class="st31" d="M696.4-124.1c-3.9,2.3-7.2,5.9-7.9,10.5c-0.1,0.5,0.6,0.5,0.8,0.1c1.8-4,3.8-7.3,7.7-9.6
			C697.5-123.5,697-124.5,696.4-124.1L696.4-124.1z"/>
		<path class="st31" d="M689.3-112.8c0.9-1.2,2-2.3,3.1-3.4c0.4-0.4-0.2-1-0.6-0.6c-1.3,1-2.3,2.2-3.2,3.5
			C688.3-112.8,689-112.4,689.3-112.8L689.3-112.8z"/>
		<path class="st31" d="M692.3-117.3c-0.2,1.4-0.3,2.8,0.2,4.1c0.1,0.4,0.7,0.2,0.8-0.2c0-1.3-0.1-2.6,0.1-3.9
			C693.5-117.9,692.4-117.9,692.3-117.3L692.3-117.3z"/>
		<path class="st31" d="M693.9-113.5c0.4-1,1.1-1.9,1.6-2.9c0.2-0.4-0.2-0.7-0.5-0.5c-0.9,0.7-1.5,2-1.9,3.1
			C692.9-113.3,693.7-113,693.9-113.5L693.9-113.5z"/>
		<path class="st31" d="M694.9-117.1c0.4,2.2,1.3,4.5,3,6c0.4,0.4,1-0.1,0.7-0.6c-1.3-1.7-2.2-3.5-2.6-5.6
			C695.8-118.1,694.7-117.8,694.9-117.1L694.9-117.1z"/>
		<path class="st31" d="M697.7-114.1c0.5,1.2,0.9,2.6,1.7,3.6c0.2,0.2,0.5,0,0.4-0.2c-0.2-1.3-0.9-2.6-1.4-3.8
			C698.2-115,697.5-114.6,697.7-114.1L697.7-114.1z"/>
		<path class="st31" d="M698.4-115.5c0.7,1.8,1.6,3.5,2.8,5c0.9,1.2,1.9,2.4,3.5,2.4c0.3,0,0.4-0.4,0.1-0.5c-2.9-1.2-4.8-4.4-6.1-7
			C698.6-115.8,698.4-115.6,698.4-115.5L698.4-115.5z"/>
		<path class="st31" d="M702.7-111.7c0.3,0.9,0.8,1.8,1.3,2.6c0.4,0.7,0.9,1.5,1.7,1.8c0.2,0.1,0.4-0.1,0.3-0.3
			c-0.3-0.8-1-1.4-1.4-2.1c-0.5-0.7-0.9-1.5-1.2-2.3C703.2-112.5,702.5-112.2,702.7-111.7L702.7-111.7z"/>
		<path class="st31" d="M704.8-111.4c0.3,1.1,0.6,2.3,1,3.4c0.2,0.5,0.9,0.4,0.8-0.2c-0.2-1.2-0.5-2.3-0.8-3.5
			C705.6-112.3,704.6-112.1,704.8-111.4L704.8-111.4z"/>
		<path class="st31" d="M689.6-91.4c0.2-0.6,0.4-0.3,1,0c0.5,0.2,1.2,0.4,1.5,0.9c0.2,0.4,0.2,1.1,0.2,1.6c0.1,1.7-0.4,3.2-0.5,4.8
			c0,0.2,0.3,0.4,0.5,0.2c1.4-1.7,2-5.5,0.7-7.5c-0.6-0.9-2.3-1.5-3.3-1.6c-0.9-0.1-0.9,0.4-1.2,1C688.1-91.2,689.3-90.6,689.6-91.4
			L689.6-91.4z"/>
		<path class="st31" d="M705.2-86.4c0.5,0.6,1,1.3,1.7,1.7c0.4,0.2,0.7-0.2,0.6-0.5c-0.3-0.7-0.9-1.3-1.5-1.9
			C705.5-87.7,704.7-86.9,705.2-86.4L705.2-86.4z"/>
		<path class="st31" d="M705.8-86.5c0.4,0,0.9,0.1,1.3,0.2c0.4,0.1,0.7-0.4,0.3-0.7c-0.5-0.3-1-0.4-1.6-0.4
			C705.3-87.4,705.2-86.5,705.8-86.5L705.8-86.5z"/>
		<path class="st31" d="M711.3-91.9c0.1-0.2,0.2-0.5,0.3-0.7c0.1-0.2,0.2-0.5,0.2-0.7c0-0.4-0.5-0.7-0.8-0.3c-0.3,0.4-0.5,1-0.7,1.5
			C710-91.6,711-91.3,711.3-91.9L711.3-91.9z"/>
		<path class="st31" d="M710.7-91.7c2.6-0.4,5.5-0.5,8-1.4c0.3-0.1,0.2-0.6-0.1-0.6c-2.7,0-5.4,0.9-8,1.5
			C710.3-92.1,710.4-91.7,710.7-91.7L710.7-91.7z"/>
		<path class="st31" d="M712.1-104.3c-2.2,1.3-4.4,2.7-6.5,4.2c-1.4,1-1.4,1.8-1.3,3.5c0.2,2.7,2,7.1,5.5,5.7
			c0.3-0.1,0.2-0.6-0.1-0.6c-1.4-0.1-2.7-0.7-3.4-2c-0.6-1-1.3-3.3-0.9-4.4c0.5-1.5,2.6-2.5,3.8-3.4c1.1-0.8,2.2-1.5,3.3-2.3
			C712.8-103.9,712.5-104.6,712.1-104.3L712.1-104.3z"/>
		<path class="st31" d="M698.9-97.9c2,0.1,4.4,0.7,6.4,0.3c0.3-0.1,0.3-0.4,0-0.5c-1.9-0.7-4.4-0.5-6.4-0.6
			C698.4-98.8,698.4-97.9,698.9-97.9L698.9-97.9z"/>
		<path class="st31" d="M702.3-99c0.8,0.2,1.7,0.6,2.6,0.5c0.2,0,0.2-0.3,0.1-0.4c-0.7-0.4-1.7-0.5-2.4-0.7
			C702.1-99.7,701.9-99.1,702.3-99L702.3-99z"/>
		<path class="st31" d="M701.4-93.1c1.2-0.2,2.5-0.1,3.7-0.4c0.2,0,0.2-0.3,0-0.4c-1.2-0.3-2.6-0.1-3.9,0.1
			C700.8-93.7,701-93,701.4-93.1L701.4-93.1z"/>
		<path class="st31" d="M703.8-92.3c0.6-0.2,1.2-0.3,1.8-0.5c0.3-0.1,0.2-0.6-0.1-0.5c-0.6,0.2-1.2,0.3-1.8,0.5
			C703.4-92.7,703.5-92.2,703.8-92.3L703.8-92.3z"/>
		<path class="st31" d="M686.3-129.3c2.3-0.2,4.6,0.1,6.8,0.9c2,0.8,3.8,2.2,5.8,3c0.4,0.2,0.7-0.4,0.4-0.7c-1.3-1.8-4-3-6.1-3.6
			c-2.3-0.7-4.6-0.9-7-0.6C685.6-130.3,685.7-129.3,686.3-129.3L686.3-129.3z"/>
		<path class="st15" d="M886.9-98.1c20,0,30.8,7.5,30.8,22.5c0,16.8-10.2,26.9-35.2,26.9H806l16.3-21.1h62.1c6,0,8.7-1.7,8.7-6
			c0-4.2-2.7-5.9-8.7-5.9h-44.7c-21.1,0-30.8-9.5-30.8-23.6c0-15.5,10.3-25.5,35.2-25.5c28.3,0,56.6-0.1,84.9-0.1
			c-5.3,7-10.5,14-15.8,21.1c-23.7,0.1-47.4,0.3-71,0.4c-5.9,0-8.7,1.5-8.7,5.6c0,4.2,2.8,5.8,8.7,5.8H886.9z"/>
		
			<linearGradient id="SVGID_00000049218738823156349360000004511281310608723898_" gradientUnits="userSpaceOnUse" x1="915.8918" y1="-89.9069" x2="1042.0161" y2="-89.9069">
			<stop  offset="0" style="stop-color:#FE9F0F"/>
			<stop  offset="1" style="stop-color:#FDBF2C"/>
		</linearGradient>
		<path style="fill:url(#SVGID_00000049218738823156349360000004511281310608723898_);" d="M1042-48.8h-34l-18.3-21.7h-39v21.7
			h-25.4v-42h71.5c7.9,0,14-3.6,14-9.2c0-6.4-5.3-9.6-14-9.6c-26.9-0.1-53.9-0.3-80.8-0.4c5.3-7,10.5-14,15.8-21.1
			c21,0,42,0.1,62.9,0.1c18.7,0,42.2,5.9,42.2,29.3c0,12.8-8,23.3-21.5,26c2.8,2.1,5.9,5,11.5,10.8L1042-48.8z"/>
		<path class="st0" d="M629.5-4.1l-10.5,0v-22.3c0-2.1-1.8-3.7-3.9-3.5c-1.8,0.2-3.2,1.8-3.2,3.6v22.1v2.8c0,1.5,0.7,2.7,1.9,3.5
			c0.7,0.5,1.5,0.7,2.4,0.7h0l2.8,0l10.7,0c2.1,0,3.7-1.8,3.5-3.9C633-2.7,631.4-4.1,629.5-4.1z"/>
	</g>
</g>
</svg>
